<?xml version="1.0" encoding="UTF-8" standalone="no"?>
<!-- Created with Inkscape (http://www.inkscape.org/) -->

<svg
   width="75.315674mm"
   height="75.118561mm"
   viewBox="0 0 75.315674 75.118561"
   version="1.1"
   id="svg5"
   xml:space="preserve"
   xmlns="http://www.w3.org/2000/svg"
   xmlns:svg="http://www.w3.org/2000/svg"><defs
     id="defs2"><linearGradient
       id="linearGradient10433"><stop
         style="stop-color:#000000;stop-opacity:1;"
         offset="0"
         id="stop10431" /></linearGradient></defs><g
     id="layer1"
     transform="translate(-1201.1127,-289.18741)"><g
       id="g3693-9-6-6"
       transform="translate(387.5199,179.50878)"><path
         style="color:#000000;fill:#0068b2;-inkscape-stroke:none;paint-order:stroke fill markers"
         d="m 850.43945,109.68945 c -3.97725,0.0956 -7.98391,0.82507 -11.87304,2.23438 l 1.70312,4.70117 c 13.50394,-4.89342 28.59191,-0.37278 37.18164,11.14063 8.58973,11.5134 8.62679,27.26625 0.0918,38.82031 -8.535,11.55405 -23.6019,16.14566 -37.12891,11.3164 l -1.67969,4.70899 c 15.58311,5.5633 32.99811,0.25512 42.83008,-13.05469 9.83197,-13.30982 9.78762,-31.51826 -0.10742,-44.78125 -7.42127,-9.94724 -19.0858,-15.37274 -31.01758,-15.08594 z m 0.32617,7.50196 c -3.172,0.061 -6.36995,0.62724 -9.47656,1.73242 l 1.67578,4.71094 c 10.37662,-3.6915 21.91955,-0.1867 28.49219,8.65234 6.57265,8.83903 6.60862,20.90578 0.0879,29.7832 -6.52073,8.87742 -18.04334,12.45092 -28.4414,8.82031 l -1.64844,4.71875 c 12.45212,4.3478 26.31066,0.0505 34.11914,-10.58007 7.80847,-10.63058 7.76518,-25.14 -0.10547,-35.72461 -5.90299,-7.93847 -15.18712,-12.29628 -24.70313,-12.11328 z m 0.39063,7.54101 c -2.35982,0.0198 -4.74297,0.4106 -7.0625,1.20117 l 1.61328,4.73243 c 7.23497,-2.46594 15.20878,0.0305 19.74609,6.17968 4.53732,6.1492 4.56846,14.49951 0.0762,20.68164 -4.49228,6.18215 -12.44839,8.73532 -19.70118,6.32227 l -1.57812,4.74414 c 9.30095,3.09449 19.56069,-0.19805 25.32227,-8.12695 5.76158,-7.92891 5.72362,-18.70321 -0.0957,-26.58985 -4.36449,-5.91497 -11.24086,-9.20392 -18.32031,-9.14453 z"
         id="path401-5-5-6-8-7-4-6-5-8-7-2" /></g><path
       style="color:#000000;fill:#95a5a6;-inkscape-stroke:none;paint-order:stroke fill markers"
       d="m 1220.1641,294.28711 c -11.8307,6.69944 -19.1215,19.28196 -19.0508,32.87891 0.071,13.59692 7.4929,26.10356 19.3926,32.67968 l 2.4179,-4.37695 c -10.3222,-5.7044 -16.7492,-16.53301 -16.8105,-28.32813 -0.061,-11.79512 6.2532,-22.69253 16.5156,-28.5039 z m 3.6679,6.55078 c -9.4492,5.36583 -15.2694,15.42765 -15.2109,26.29492 0.058,10.86726 5.9878,20.86506 15.4941,26.12891 l 2.4219,-4.37305 c -7.9312,-4.39166 -12.8672,-12.71596 -12.916,-21.7832 -0.049,-9.06725 4.7961,-17.44317 12.6797,-21.91992 z m 3.7305,6.55469 c -7.0792,4.01317 -11.4455,11.54528 -11.4082,19.68164 0.037,8.13637 4.4741,15.62804 11.5898,19.57617 l 2.4258,-4.37109 c -5.5421,-3.07501 -8.9866,-8.89253 -9.0156,-15.22852 -0.029,-6.33598 3.3613,-12.18293 8.875,-15.30859 z"
       id="path401-5-5-6-9-0-1-0-7-4-9" /><path
       id="path7261"
       style="fill:#0068b2;fill-opacity:1;stroke:none;stroke-width:7.06314;stroke-linecap:round;paint-order:stroke fill markers"
       d="m 1238.3223,312.02666 a 15,15 0 0 0 -13.7051,9.88622 15,15 0 0 0 8.9932,19.21123 l 0.01,0.002 a 15,15 0 0 0 19.2092,-8.99842 15,15 0 0 0 -8.9969,-19.20968 15,15 0 0 0 -5.5056,-0.89142 z m -0.5535,2.36575 3.804,3.80338 3.8028,3.80339 -5.0224,5.02243 5.0224,5.02243 -7.6068,7.60677 v -10.02729 l -4.1821,4.18527 -1.5214,-1.52135 5.2503,-5.26325 v -0.003 l -5.2503,-5.26324 1.5214,-1.52136 4.1821,4.18476 z m 2.1415,5.19399 v 4.85604 l 2.4278,-2.42776 z m 0,10.01438 v 4.85604 l 2.4278,-2.42828 z" /><path
       id="rect1640"
       style="fill:#ffffff;fill-opacity:1;stroke:none;stroke-width:8.40389;stroke-linecap:round;paint-order:stroke fill markers"
       d="m 1237.7689,314.3925 v 10.02885 l -4.1822,-4.18476 -1.5215,1.52135 5.2504,5.26325 v 0.003 l -5.2504,5.26324 1.5215,1.52136 4.1822,-4.18528 v 10.0273 l 7.6067,-7.60677 -5.0224,-5.02243 5.0224,-5.02244 -3.8028,-3.80338 z m 2.1414,5.194 2.4277,2.42828 -2.4277,2.42776 z m 0,10.01438 2.4277,2.42776 -2.4277,2.42827 z" /></g></svg>
